<mxfile host="app.diagrams.net" agent="Mozilla/5.0 (Windows NT 10.0; Win64; x64) AppleWebKit/537.36 (KHTML, like Gecko) Chrome/133.0.0.0 Safari/537.36" version="26.0.16">
  <diagram name="Pagina-1" id="chhbWi238Jx0Ic4HPbsi">
    <mxGraphModel dx="1434" dy="1907" grid="1" gridSize="10" guides="1" tooltips="1" connect="1" arrows="1" fold="1" page="1" pageScale="1" pageWidth="827" pageHeight="1169" math="0" shadow="0">
      <root>
        <mxCell id="0" />
        <mxCell id="1" parent="0" />
        <mxCell id="IEfos8bs7tHop2NpzzDZ-39" value="" style="rounded=1;whiteSpace=wrap;html=1;dashed=1;" parent="1" vertex="1">
          <mxGeometry x="110" width="1000" height="1070" as="geometry" />
        </mxCell>
        <mxCell id="IEfos8bs7tHop2NpzzDZ-26" value="" style="rounded=1;whiteSpace=wrap;html=1;fillColor=#fad7ac;strokeColor=#b46504;" parent="1" vertex="1">
          <mxGeometry x="600" y="260" width="160" height="430" as="geometry" />
        </mxCell>
        <mxCell id="IEfos8bs7tHop2NpzzDZ-10" style="edgeStyle=orthogonalEdgeStyle;rounded=0;orthogonalLoop=1;jettySize=auto;html=1;" parent="1" source="IEfos8bs7tHop2NpzzDZ-1" target="IEfos8bs7tHop2NpzzDZ-3" edge="1">
          <mxGeometry relative="1" as="geometry" />
        </mxCell>
        <mxCell id="IEfos8bs7tHop2NpzzDZ-1" value="Actor" style="shape=umlActor;verticalLabelPosition=bottom;verticalAlign=top;html=1;outlineConnect=0;" parent="1" vertex="1">
          <mxGeometry x="20" y="250" width="30" height="60" as="geometry" />
        </mxCell>
        <mxCell id="IEfos8bs7tHop2NpzzDZ-9" style="edgeStyle=orthogonalEdgeStyle;rounded=0;orthogonalLoop=1;jettySize=auto;html=1;entryX=0;entryY=0.5;entryDx=0;entryDy=0;strokeColor=default;startArrow=classic;startFill=1;" parent="1" source="IEfos8bs7tHop2NpzzDZ-3" target="IEfos8bs7tHop2NpzzDZ-8" edge="1">
          <mxGeometry relative="1" as="geometry" />
        </mxCell>
        <mxCell id="IEfos8bs7tHop2NpzzDZ-14" style="edgeStyle=orthogonalEdgeStyle;rounded=0;orthogonalLoop=1;jettySize=auto;html=1;" parent="1" source="IEfos8bs7tHop2NpzzDZ-3" target="IEfos8bs7tHop2NpzzDZ-5" edge="1">
          <mxGeometry relative="1" as="geometry" />
        </mxCell>
        <mxCell id="35JmLqdMYv9tIQoRzTlE-8" style="edgeStyle=orthogonalEdgeStyle;rounded=0;orthogonalLoop=1;jettySize=auto;html=1;entryX=0;entryY=0.5;entryDx=0;entryDy=0;" edge="1" parent="1" source="IEfos8bs7tHop2NpzzDZ-3" target="35JmLqdMYv9tIQoRzTlE-6">
          <mxGeometry relative="1" as="geometry">
            <Array as="points">
              <mxPoint x="310" y="621" />
              <mxPoint x="310" y="621" />
            </Array>
          </mxGeometry>
        </mxCell>
        <mxCell id="IEfos8bs7tHop2NpzzDZ-3" value="API-GATEWAY" style="rounded=1;whiteSpace=wrap;html=1;direction=south;fontStyle=3;fillColor=#f5f5f5;fontColor=#333333;strokeColor=#666666;" parent="1" vertex="1">
          <mxGeometry x="130" y="200" width="100" height="560" as="geometry" />
        </mxCell>
        <mxCell id="IEfos8bs7tHop2NpzzDZ-29" style="edgeStyle=orthogonalEdgeStyle;rounded=0;orthogonalLoop=1;jettySize=auto;html=1;" parent="1" source="IEfos8bs7tHop2NpzzDZ-5" target="IEfos8bs7tHop2NpzzDZ-27" edge="1">
          <mxGeometry relative="1" as="geometry">
            <Array as="points">
              <mxPoint x="560" y="340" />
              <mxPoint x="560" y="340" />
            </Array>
          </mxGeometry>
        </mxCell>
        <mxCell id="f5035h7tQpbPwIKEuvAs-4" style="edgeStyle=orthogonalEdgeStyle;rounded=0;orthogonalLoop=1;jettySize=auto;html=1;" parent="1" source="IEfos8bs7tHop2NpzzDZ-5" target="f5035h7tQpbPwIKEuvAs-3" edge="1">
          <mxGeometry relative="1" as="geometry">
            <Array as="points">
              <mxPoint x="670" y="240" />
              <mxPoint x="670" y="240" />
            </Array>
          </mxGeometry>
        </mxCell>
        <mxCell id="f5035h7tQpbPwIKEuvAs-7" style="edgeStyle=orthogonalEdgeStyle;rounded=0;orthogonalLoop=1;jettySize=auto;html=1;startArrow=openThin;startFill=0;" parent="1" source="IEfos8bs7tHop2NpzzDZ-5" target="f5035h7tQpbPwIKEuvAs-6" edge="1">
          <mxGeometry relative="1" as="geometry">
            <Array as="points">
              <mxPoint x="395" y="190" />
              <mxPoint x="1110" y="190" />
            </Array>
          </mxGeometry>
        </mxCell>
        <mxCell id="IEfos8bs7tHop2NpzzDZ-5" value="MESSAGE-API" style="rounded=1;whiteSpace=wrap;html=1;fillColor=#dae8fc;strokeColor=#6c8ebf;" parent="1" vertex="1">
          <mxGeometry x="280" y="210" width="230" height="80" as="geometry" />
        </mxCell>
        <mxCell id="IEfos8bs7tHop2NpzzDZ-34" style="edgeStyle=orthogonalEdgeStyle;rounded=0;orthogonalLoop=1;jettySize=auto;html=1;" parent="1" source="IEfos8bs7tHop2NpzzDZ-6" target="IEfos8bs7tHop2NpzzDZ-25" edge="1">
          <mxGeometry relative="1" as="geometry" />
        </mxCell>
        <mxCell id="IEfos8bs7tHop2NpzzDZ-6" value="DOCUMENT-API" style="rounded=1;whiteSpace=wrap;html=1;fillColor=#fff2cc;strokeColor=#d6b656;" parent="1" vertex="1">
          <mxGeometry x="840" y="453.8" width="230" height="80" as="geometry" />
        </mxCell>
        <mxCell id="IEfos8bs7tHop2NpzzDZ-32" style="edgeStyle=orthogonalEdgeStyle;rounded=0;orthogonalLoop=1;jettySize=auto;html=1;" parent="1" source="IEfos8bs7tHop2NpzzDZ-7" target="IEfos8bs7tHop2NpzzDZ-31" edge="1">
          <mxGeometry relative="1" as="geometry">
            <Array as="points">
              <mxPoint x="563" y="480" />
              <mxPoint x="563" y="480" />
            </Array>
          </mxGeometry>
        </mxCell>
        <mxCell id="IEfos8bs7tHop2NpzzDZ-7" value="SIGN-API" style="rounded=1;whiteSpace=wrap;html=1;fillColor=#d5e8d4;strokeColor=#82b366;" parent="1" vertex="1">
          <mxGeometry x="280" y="450.00000000000006" width="230" height="83.8" as="geometry" />
        </mxCell>
        <mxCell id="f5035h7tQpbPwIKEuvAs-5" style="edgeStyle=orthogonalEdgeStyle;rounded=0;orthogonalLoop=1;jettySize=auto;html=1;" parent="1" source="IEfos8bs7tHop2NpzzDZ-8" edge="1">
          <mxGeometry relative="1" as="geometry">
            <mxPoint x="1050" y="110" as="targetPoint" />
          </mxGeometry>
        </mxCell>
        <mxCell id="IEfos8bs7tHop2NpzzDZ-8" value="AUTH-API" style="rounded=1;whiteSpace=wrap;html=1;fillColor=#e1d5e7;strokeColor=#9673a6;" parent="1" vertex="1">
          <mxGeometry x="280" y="70" width="230" height="80" as="geometry" />
        </mxCell>
        <mxCell id="IEfos8bs7tHop2NpzzDZ-25" value="" style="dashed=0;outlineConnect=0;html=1;align=center;labelPosition=center;verticalLabelPosition=bottom;verticalAlign=top;shape=mxgraph.webicons.mongodb;gradientColor=#DFDEDE" parent="1" vertex="1">
          <mxGeometry x="895" y="584.5" width="120" height="90" as="geometry" />
        </mxCell>
        <mxCell id="IEfos8bs7tHop2NpzzDZ-30" style="edgeStyle=orthogonalEdgeStyle;rounded=0;orthogonalLoop=1;jettySize=auto;html=1;entryX=0.5;entryY=0;entryDx=0;entryDy=0;" parent="1" source="IEfos8bs7tHop2NpzzDZ-27" target="IEfos8bs7tHop2NpzzDZ-7" edge="1">
          <mxGeometry relative="1" as="geometry">
            <Array as="points">
              <mxPoint x="800" y="350" />
              <mxPoint x="800" y="410" />
              <mxPoint x="395" y="410" />
            </Array>
          </mxGeometry>
        </mxCell>
        <mxCell id="IEfos8bs7tHop2NpzzDZ-27" value="MESSAGE-TOPIC" style="rounded=0;whiteSpace=wrap;html=1;fillColor=#dae8fc;gradientColor=#7ea6e0;strokeColor=#6c8ebf;" parent="1" vertex="1">
          <mxGeometry x="610" y="320" width="130" height="60" as="geometry" />
        </mxCell>
        <mxCell id="IEfos8bs7tHop2NpzzDZ-31" value="SIGN-TOPIC" style="rounded=0;whiteSpace=wrap;html=1;fillColor=#d5e8d4;gradientColor=#97d077;strokeColor=#82b366;" parent="1" vertex="1">
          <mxGeometry x="615.35" y="450" width="130" height="71.9" as="geometry" />
        </mxCell>
        <mxCell id="IEfos8bs7tHop2NpzzDZ-38" value="" style="points=[];aspect=fixed;html=1;align=center;shadow=0;dashed=0;fillColor=#FF6A00;strokeColor=none;shape=mxgraph.alibaba_cloud.kafka;" parent="1" vertex="1">
          <mxGeometry x="652" y="270" width="56.699999999999996" height="42" as="geometry" />
        </mxCell>
        <mxCell id="IEfos8bs7tHop2NpzzDZ-40" value="&lt;b&gt;&lt;i&gt;GAMMA PLATFORM&lt;/i&gt;&lt;/b&gt;" style="text;html=1;align=center;verticalAlign=middle;whiteSpace=wrap;rounded=0;" parent="1" vertex="1">
          <mxGeometry x="130" y="-40" width="130" height="30" as="geometry" />
        </mxCell>
        <mxCell id="IEfos8bs7tHop2NpzzDZ-42" style="edgeStyle=orthogonalEdgeStyle;rounded=0;orthogonalLoop=1;jettySize=auto;html=1;entryX=0.5;entryY=1;entryDx=0;entryDy=0;" parent="1" source="IEfos8bs7tHop2NpzzDZ-41" target="IEfos8bs7tHop2NpzzDZ-3" edge="1">
          <mxGeometry relative="1" as="geometry" />
        </mxCell>
        <mxCell id="IEfos8bs7tHop2NpzzDZ-41" value="Actor" style="shape=umlActor;verticalLabelPosition=bottom;verticalAlign=top;html=1;outlineConnect=0;" parent="1" vertex="1">
          <mxGeometry x="20" y="450" width="30" height="60" as="geometry" />
        </mxCell>
        <mxCell id="IEfos8bs7tHop2NpzzDZ-44" style="edgeStyle=orthogonalEdgeStyle;rounded=0;orthogonalLoop=1;jettySize=auto;html=1;" parent="1" source="IEfos8bs7tHop2NpzzDZ-43" target="IEfos8bs7tHop2NpzzDZ-3" edge="1">
          <mxGeometry relative="1" as="geometry" />
        </mxCell>
        <mxCell id="IEfos8bs7tHop2NpzzDZ-43" value="Actor" style="shape=umlActor;verticalLabelPosition=bottom;verticalAlign=top;html=1;outlineConnect=0;" parent="1" vertex="1">
          <mxGeometry x="20" y="640" width="30" height="60" as="geometry" />
        </mxCell>
        <mxCell id="f5035h7tQpbPwIKEuvAs-2" value="&lt;b&gt;&lt;i&gt;EXTERNAL PLATFORM&lt;/i&gt;&lt;/b&gt;" style="text;html=1;align=center;verticalAlign=middle;whiteSpace=wrap;rounded=0;" parent="1" vertex="1">
          <mxGeometry x="1030" y="40" width="160" height="30" as="geometry" />
        </mxCell>
        <mxCell id="f5035h7tQpbPwIKEuvAs-3" value="" style="dashed=0;outlineConnect=0;html=1;align=center;labelPosition=center;verticalLabelPosition=bottom;verticalAlign=top;shape=mxgraph.webicons.mongodb;gradientColor=#DFDEDE" parent="1" vertex="1">
          <mxGeometry x="870" y="312" width="120" height="90" as="geometry" />
        </mxCell>
        <mxCell id="f5035h7tQpbPwIKEuvAs-6" value="External&#xa;Infrastructure&#xa;1&lt;sup&gt;st&lt;/sup&gt; Party" style="sketch=0;points=[[0,0,0],[0.25,0,0],[0.5,0,0],[0.75,0,0],[1,0,0],[1,0.25,0],[1,0.5,0],[1,0.75,0],[1,1,0],[0.75,1,0],[0.5,1,0],[0.25,1,0],[0,1,0],[0,0.75,0],[0,0.5,0],[0,0.25,0]];rounded=1;absoluteArcSize=1;arcSize=2;html=1;strokeColor=none;gradientColor=none;shadow=0;dashed=0;fontSize=12;fontColor=#9E9E9E;align=left;verticalAlign=top;spacing=10;spacingTop=-4;whiteSpace=wrap;fillColor=#E1F5FE;" parent="1" vertex="1">
          <mxGeometry x="1050" y="75" width="120" height="75" as="geometry" />
        </mxCell>
        <mxCell id="35JmLqdMYv9tIQoRzTlE-3" style="edgeStyle=orthogonalEdgeStyle;rounded=0;orthogonalLoop=1;jettySize=auto;html=1;entryX=-0.009;entryY=0.402;entryDx=0;entryDy=0;entryPerimeter=0;" edge="1" parent="1" source="IEfos8bs7tHop2NpzzDZ-31" target="IEfos8bs7tHop2NpzzDZ-6">
          <mxGeometry relative="1" as="geometry" />
        </mxCell>
        <mxCell id="35JmLqdMYv9tIQoRzTlE-4" value="LOG-API" style="rounded=1;whiteSpace=wrap;html=1;fillColor=#f8cecc;strokeColor=#b85450;gradientColor=#ea6b66;" vertex="1" parent="1">
          <mxGeometry x="565" y="760" width="230" height="80" as="geometry" />
        </mxCell>
        <mxCell id="35JmLqdMYv9tIQoRzTlE-7" style="edgeStyle=orthogonalEdgeStyle;rounded=0;orthogonalLoop=1;jettySize=auto;html=1;" edge="1" parent="1" source="35JmLqdMYv9tIQoRzTlE-6" target="35JmLqdMYv9tIQoRzTlE-4">
          <mxGeometry relative="1" as="geometry" />
        </mxCell>
        <mxCell id="35JmLqdMYv9tIQoRzTlE-6" value="LOG-TOPIC" style="rounded=0;whiteSpace=wrap;html=1;fillColor=#f8cecc;gradientColor=#ea6b66;strokeColor=#b85450;" vertex="1" parent="1">
          <mxGeometry x="615.35" y="585" width="130" height="71.9" as="geometry" />
        </mxCell>
      </root>
    </mxGraphModel>
  </diagram>
</mxfile>
